<?xml version="1.0" encoding="UTF-8"?>
<svg id="Layer_3" xmlns="http://www.w3.org/2000/svg" version="1.1" viewBox="0 0 941.4 304.2">
  <!-- Generator: Adobe Illustrator 29.7.1, SVG Export Plug-In . SVG Version: 2.1.1 Build 8)  -->
  <defs>
    <style>
      .st0 {
        fill: #94b8ba;
      }

      .st1 {
        fill: #fff;
      }

      .st2 {
        fill: #94a561;
      }
    </style>
  </defs>
  <g>
    <path class="st1" d="M472.6,220.6h-23v-74.9l-40.4,71.1c-1,1.8-2.4,3.2-4.2,4.1-1.8.9-3.7,1.4-5.7,1.4s-3.8-.5-5.6-1.4c-1.7-.9-3.1-2.3-4.1-4.1l-40.6-71.1v74.9h-22.8v-116c0-2.6.8-5,2.3-7,1.5-2,3.6-3.4,6.1-4.1,1.2-.3,2.5-.4,3.7-.3,1.2,0,2.4.4,3.6.8s2.2,1.1,3.1,1.8c.9.8,1.7,1.7,2.4,2.9l51.9,90.2,51.9-90.2c1.3-2.2,3.2-3.8,5.6-4.7,2.4-.9,4.8-1.1,7.4-.4,2.5.7,4.5,2.1,6.1,4.1,1.6,2,2.4,4.4,2.4,7v116Z"/>
    <path class="st1" d="M522.1,220.6h-22.8v-125.8h22.8v125.8Z"/>
    <path class="st1" d="M664.3,220.6h-104c-1.6,0-3.2-.3-4.6-.9-1.4-.6-2.6-1.4-3.6-2.4-1-1-1.8-2.2-2.4-3.6-.6-1.4-.9-2.9-.9-4.6v-114.3h22.8v103h92.7v22.8Z"/>
    <path class="st1" d="M794.1,220.6h-82.3c-3.2,0-6.6-.6-10.3-1.7-3.7-1.1-7.2-2.9-10.4-5.5-3.2-2.5-5.8-5.8-8-9.9-2.1-4.1-3.2-9-3.2-15v-82.3c0-1.6.3-3.1.9-4.5.6-1.4,1.4-2.6,2.4-3.7,1-1.1,2.2-1.9,3.6-2.5,1.4-.6,2.9-.9,4.6-.9h102.7v22.8h-91.4v70.9c0,3,.8,5.3,2.4,6.8s3.9,2.4,6.9,2.4h82.1v22.8ZM783.9,169.2h-72v-23h72v23Z"/>
    <path class="st1" d="M936.6,183.6c0,4.5-.6,8.6-1.7,12.1-1.1,3.6-2.6,6.8-4.5,9.5-1.9,2.7-4.1,5.1-6.6,7-2.5,1.9-5.1,3.5-7.8,4.7-2.7,1.2-5.4,2.1-8.2,2.7-2.8.6-5.4.9-7.8.9h-88v-22.8h88c4.4,0,7.8-1.3,10.2-3.9,2.4-2.6,3.6-6,3.6-10.3s-.3-4-1-5.8c-.6-1.8-1.6-3.3-2.8-4.6-1.2-1.3-2.7-2.3-4.4-3-1.7-.7-3.6-1.1-5.7-1.1h-52.4c-3.7,0-7.7-.7-11.9-2-4.3-1.3-8.2-3.4-11.9-6.4-3.7-2.9-6.7-6.8-9.1-11.5-2.4-4.7-3.6-10.5-3.6-17.4s1.2-12.6,3.6-17.3c2.4-4.7,5.5-8.5,9.1-11.5,3.7-3,7.6-5.1,11.9-6.4,4.3-1.3,8.2-2,11.9-2h77.6v22.8h-77.6c-4.3,0-7.7,1.3-10.1,3.9-2.4,2.6-3.6,6.1-3.6,10.4s1.2,7.8,3.6,10.4c2.4,2.5,5.8,3.8,10.1,3.8h52.6c2.5,0,5.1.4,7.8,1,2.7.6,5.5,1.6,8.2,2.9,2.7,1.3,5.3,2.9,7.8,4.9,2.5,2,4.6,4.3,6.5,7.1,1.9,2.7,3.4,5.9,4.5,9.5,1.1,3.6,1.7,7.6,1.7,12.1Z"/>
  </g>
  <g>
    <path class="st1" d="M131.8,130.3c2.1,4.2,4.1,8.6,6.2,13.1.1.3.3.5.4.8,1.4,3,2.7,6.1,4.1,9.2,14.4-27,50.6-89.1,83.3-104.3h0c9-5,18.9-8.6,29.8-10.3-30.4-12.1-74.6-9.3-123.8,91.4Z"/>
    <path class="st1" d="M127.4,139.1C75.6,25.2,31.6,26.3,0,38.9c10.9,1.7,20.8,5.3,29.8,10.3h0c41.6,19.4,85.1,108.3,87.8,113.9h0c-1-2.3-1.5-5-1.5-7.9,0-8.7,5-15.8,11.2-16.1Z"/>
    <path class="st1" d="M117.7,163.1c.3.6.5,1.2.9,1.8l-.8-1.7h-.1Z"/>
    <path class="st1" d="M127.8,171.3c1.6,0,3.1-.4,4.4-1.2,1.8-1.5,3.6-3.9,5.4-7.2-3.3-8.1-6.6-15.7-9.8-22.9-.1-.3-.3-.5-.4-.8-6.2.3-11.2,7.4-11.2,16.1s.6,5.6,1.5,7.9h.1c0,.1.8,1.8.8,1.8,2.1,3.9,5.5,6.4,9.2,6.4Z"/>
    <path class="st0" d="M213.2,226V77.6c-26.7,24.2-52.3,71.2-60.6,87.2-2.3,4.4-3.7,7.3-4,8v.3c.3.6.9,1.4,1.8,2.3,8.4,9.4,29.5,25.7,62.9,50.5Z"/>
    <path class="st1" d="M242.4,247.6V59.9c-1.6.5-3.1,1.1-4.7,1.8v.4l-8.4,4c-1.1.5-2.2,1.1-3.2,1.7v168.7"/>
    <path class="st2" d="M44.3,226V77.6c26.7,24.2,52.3,71.2,60.6,87.2,2.3,4.4,3.7,7.3,4,8v.3c-.3.6-.9,1.4-1.8,2.3-8.4,9.4-29.5,25.7-62.9,50.5Z"/>
    <path class="st1" d="M15.1,247.6V62.7s0-2.8,0-2.8c1.6.5,3.1,1.1,4.7,1.8v.4s8.4,4,8.4,4c1.1.5,2.2,1.1,3.2,1.7v168.7"/>
    <path class="st1" d="M225.5,254.7c-62.4-46.3-83.8-62.7-89-74.4-2.1,3.1-5.1,5.1-8.5,5.1s-6.6-2.2-8.8-5.5c-4.9,11.8-25.9,28-89.1,74.9,0,0-.1.2-.2.2h83.4l4.1-19.1h20l3.8,19.1h84.4c0,0-.1-.2-.2-.2ZM125.7,196.1h3.4l1.7,8.5h-7l1.8-8.5ZM118.9,227.6l3.6-16.9h9.8l3.4,16.9h-16.8Z"/>
  </g>
</svg>