<?xml version="1.0" encoding="UTF-8"?>
<svg id="Layer_3" xmlns="http://www.w3.org/2000/svg" version="1.1" viewBox="0 0 300 300">
  <!-- Generator: Adobe Illustrator 29.7.1, SVG Export Plug-In . SVG Version: 2.1.1 Build 8)  -->
  <defs>
    <style>
      .st0 {
        fill: #94b8ba;
      }

      .st1 {
        fill: #fff;
      }

      .st2 {
        fill: #94a561;
      }
    </style>
  </defs>
  <path class="st1" d="M154,136.2c2.1,4.2,4.1,8.6,6.2,13.1.1.3.3.5.4.8,1.4,3,2.7,6.1,4.1,9.2,14.4-27,50.6-89.1,83.3-104.3h0c9-5,18.9-8.6,29.8-10.3-30.4-12.1-74.6-9.3-123.8,91.4Z"/>
  <path class="st1" d="M149.6,145C97.8,31.1,53.8,32.2,22.2,44.8c10.9,1.7,20.8,5.3,29.8,10.3h0c41.6,19.4,85.1,108.3,87.8,113.9h0c-1-2.3-1.5-5-1.5-7.9,0-8.7,5-15.8,11.2-16.1Z"/>
  <path class="st1" d="M139.9,169c.3.6.5,1.2.9,1.8l-.8-1.7h-.1Z"/>
  <path class="st1" d="M150,177.2c1.6,0,3.1-.4,4.4-1.2,1.8-1.5,3.6-3.9,5.4-7.2-3.3-8.1-6.6-15.7-9.8-22.9-.1-.3-.3-.5-.4-.8-6.2.3-11.2,7.4-11.2,16.1s.6,5.6,1.5,7.9h.1c0,.1.8,1.8.8,1.8,2.1,3.9,5.5,6.4,9.2,6.4Z"/>
  <path class="st0" d="M235.4,231.9V83.5c-26.7,24.2-52.3,71.2-60.6,87.2-2.3,4.4-3.7,7.3-4,8v.3c.3.6.9,1.4,1.8,2.3,8.4,9.4,29.5,25.7,62.9,50.5Z"/>
  <path class="st1" d="M264.7,253.5V65.8c-1.6.5-3.1,1.1-4.7,1.8v.4l-8.4,4c-1.1.5-2.2,1.1-3.2,1.7v168.7"/>
  <path class="st2" d="M66.6,231.9V83.5c26.7,24.2,52.3,71.2,60.6,87.2,2.3,4.4,3.7,7.3,4,8v.3c-.3.6-.9,1.4-1.8,2.3-8.4,9.4-29.5,25.7-62.9,50.5Z"/>
  <path class="st1" d="M37.3,253.5V68.6s0-2.8,0-2.8c1.6.5,3.1,1.1,4.7,1.8v.4s8.4,4,8.4,4c1.1.5,2.2,1.1,3.2,1.7v168.7"/>
  <path class="st1" d="M247.7,260.6c-62.4-46.3-83.8-62.7-89-74.4-2.1,3.1-5.1,5.1-8.5,5.1s-6.6-2.2-8.8-5.5c-4.9,11.8-25.9,28-89.1,74.9,0,0-.1.2-.2.2h83.4l4.1-19.1h20l3.8,19.1h84.4c0,0-.1-.2-.2-.2ZM147.9,202h3.4l1.7,8.5h-7l1.8-8.5ZM141.1,233.5l3.6-16.9h9.8l3.4,16.9h-16.8Z"/>
</svg>